<?xml version="1.0" encoding="UTF-8"?>
<svg id="Calque_1" data-name="Calque 1" xmlns="http://www.w3.org/2000/svg" xmlns:xlink="http://www.w3.org/1999/xlink" viewBox="0 0 283.46 198.43">
  <defs>
    <clipPath id="clippath">
      <path d="M167.5,108.42c0,15.85-8.79,29.71-22.72,34.97-16.24,6.1-37.54-3.47-41.52-22.72-2.12-10.4,1.41-19.19,8.02-26.7,7.96-9.05,17.97-13.99,29.78-14.18,15.21-.26,26.38,11.49,26.38,27.34l.06,1.28ZM138.5,83.58c-13.28.83-24.96,7.12-31.77,19.19-1.6,2.76-2.57,5.78-3.02,8.92-.39,3.14-.19,6.35.71,9.43,3.79,14.44,21.37,23.29,35.87,19,11.23-3.34,20.66-14.95,21.82-29.01,1.28-16.43-10.59-28.24-23.62-27.53Z" style="fill: none;"/>
    </clipPath>
  </defs>
  <g>
    <path d="M32.88,159.1l.02-.05,2.74-8.97c.11-.31.32-.46.65-.46h.05c.24,0,.42.1.56.29.14.19.17.4.09.63l-3.1,9.71c-.19.49-.55.73-1.07.73s-.88-.24-1.08-.73l-3.09-9.71c-.08-.23-.05-.44.08-.63.14-.19.33-.29.57-.29h.05c.33,0,.54.15.65.46l2.74,8.97.02.05s.03.05.05.05c.02,0,.04-.01.05-.05Z" style="fill: #007f85;"/>
    <path d="M41.86,152.73c1.14,0,2.11.4,2.92,1.21s1.21,1.78,1.21,2.92-.4,2.11-1.21,2.92-1.78,1.21-2.92,1.21-2.11-.4-2.92-1.21-1.21-1.78-1.21-2.92.4-2.11,1.21-2.92,1.78-1.21,2.92-1.21ZM41.86,154.14c-.76,0-1.4.27-1.94.8-.53.53-.79,1.18-.79,1.94s.26,1.39.79,1.93c.53.53,1.18.8,1.94.8s1.4-.27,1.93-.8c.53-.53.8-1.18.8-1.93s-.27-1.4-.8-1.94c-.53-.53-1.17-.8-1.93-.8Z" style="fill: #007f85;"/>
    <path d="M47.98,149.63c.19,0,.35.07.48.2.14.14.2.3.2.49v2.41h1.36c.19,0,.35.07.48.2s.2.3.2.49h0c0,.21-.07.37-.2.5-.14.14-.3.2-.48.2h-1.36v4.71c0,.21.07.38.22.53.15.15.32.22.54.22h.6c.19,0,.35.07.48.2s.2.3.2.49h0c0,.21-.07.37-.2.5-.14.14-.3.2-.48.2h-.6c-.59,0-1.1-.21-1.53-.63-.42-.42-.63-.93-.63-1.52v-8.52c0-.19.07-.36.2-.49.14-.13.3-.2.48-.2h.02Z" style="fill: #007f85;"/>
    <path d="M55.31,152.73c.19,0,.35.07.49.2.13.14.2.3.2.49h0c0,.21-.06.37-.2.5-.14.14-.3.2-.49.2h-.43c-.47,0-.88.17-1.21.5-.33.33-.49.74-.5,1.21v4.46c0,.19-.07.35-.2.48-.14.14-.3.2-.48.2h-.02c-.19,0-.35-.07-.48-.2-.14-.13-.2-.29-.2-.48v-4.46c0-.86.31-1.6.91-2.2.6-.6,1.34-.91,2.2-.91h.43Z" style="fill: #007f85;"/>
    <path d="M64.48,155.14c.08.17.09.35.02.53-.07.18-.19.31-.36.39-.71.32-1.63.74-2.78,1.25-1.43.65-2.35,1.06-2.77,1.25.54.7,1.26,1.04,2.15,1.04.59,0,1.12-.17,1.6-.52.46-.34.79-.78.97-1.32.11-.31.33-.47.67-.47.24,0,.43.1.57.3.14.19.16.4.08.63-.28.82-.78,1.48-1.48,1.98-.72.52-1.52.78-2.41.78-1.14,0-2.11-.4-2.92-1.21s-1.21-1.78-1.21-2.92.4-2.11,1.21-2.92,1.78-1.21,2.92-1.21c.82,0,1.57.22,2.25.67.67.44,1.17,1.02,1.5,1.74ZM60.73,154.14c-.76,0-1.4.27-1.94.8-.53.53-.79,1.18-.79,1.94,0,.14,0,.27.03.4l4.79-2.16c-.54-.65-1.24-.98-2.09-.98Z" style="fill: #007f85;"/>
    <path d="M71.07,162.73c-.58-.71-.87-1.52-.87-2.43v-6.86c0-.91.29-1.72.87-2.43.56-.7,1.28-1.15,2.15-1.35.22-.05.42,0,.59.14.18.14.26.32.26.54v.06c0,.17-.05.31-.15.44-.1.13-.23.21-.39.24-.57.13-1.04.41-1.42.85-.39.46-.58.97-.58,1.55v6.77c0,.58.19,1.09.58,1.55.38.44.85.73,1.42.85.16.03.29.12.39.24.1.13.15.27.15.44v.07c0,.22-.09.4-.26.54-.17.14-.37.18-.59.13-.87-.2-1.59-.65-2.15-1.35Z" style="fill: #007f85;"/>
    <path d="M76.49,160.29c0,.19-.07.35-.2.48-.14.14-.3.2-.48.2h-.02c-.19,0-.35-.07-.48-.2-.14-.13-.2-.29-.2-.48v-4.16c0-.94.33-1.74,1-2.41.67-.67,1.47-1,2.41-1,1.12,0,2.03.45,2.71,1.35.68-.9,1.58-1.35,2.71-1.35.94,0,1.75.33,2.41,1,.67.67,1,1.47,1,2.41v4.16c0,.19-.07.35-.2.48s-.3.2-.49.2h-.01c-.19,0-.35-.07-.48-.2-.14-.13-.2-.29-.2-.48v-4.16c0-.55-.2-1.03-.59-1.42-.39-.39-.87-.59-1.43-.59s-1.03.2-1.42.59-.59.87-.59,1.42v4.16c0,.19-.07.35-.2.48-.13.14-.29.2-.48.2h-.02c-.19,0-.35-.07-.49-.2-.14-.13-.2-.29-.2-.48v-4.16c0-.55-.2-1.03-.59-1.42-.39-.39-.87-.59-1.42-.59s-1.03.2-1.42.59-.59.87-.59,1.42v4.16Z" style="fill: #007f85;"/>
    <path d="M89.83,151.29c-.23,0-.43-.08-.59-.24-.16-.16-.24-.36-.24-.59s.08-.42.24-.58c.16-.16.36-.24.59-.24s.42.08.58.24c.17.16.25.36.25.58s-.08.43-.25.59c-.16.16-.36.24-.58.24ZM89.83,152.73c.19,0,.35.07.48.2.14.14.2.3.2.49v6.87c0,.19-.07.35-.2.48-.13.14-.29.2-.48.2h-.01c-.19,0-.36-.07-.49-.2-.14-.13-.2-.29-.2-.48v-6.87c0-.19.07-.36.2-.49s.3-.2.49-.2h.01Z" style="fill: #007f85;"/>
    <path d="M97.47,152.92c.32.1.48.32.48.66v.04c0,.23-.09.42-.28.55-.19.14-.4.18-.62.11-.27-.09-.54-.14-.83-.14-.76,0-1.4.27-1.94.8-.53.53-.79,1.18-.79,1.94s.26,1.39.79,1.93c.53.53,1.18.8,1.94.8.29,0,.56-.04.83-.13.22-.07.43-.04.62.1.19.14.28.32.28.56,0,.33-.16.55-.48.66-.4.13-.82.19-1.25.19-1.14,0-2.11-.4-2.92-1.21s-1.21-1.78-1.21-2.92.4-2.11,1.21-2.92,1.78-1.21,2.92-1.21c.43,0,.84.06,1.25.2Z" style="fill: #007f85;"/>
    <path d="M102.78,152.73c.19,0,.35.07.49.2.13.14.2.3.2.49h0c0,.21-.06.37-.2.5-.14.14-.3.2-.49.2h-.43c-.47,0-.88.17-1.21.5-.33.33-.49.74-.5,1.21v4.46c0,.19-.07.35-.2.48-.14.14-.3.2-.48.2h-.02c-.19,0-.35-.07-.48-.2-.14-.13-.2-.29-.2-.48v-4.46c0-.86.31-1.6.91-2.2.6-.6,1.34-.91,2.2-.91h.43Z" style="fill: #007f85;"/>
    <path d="M108.2,152.73c1.14,0,2.11.4,2.92,1.21s1.21,1.78,1.21,2.92-.4,2.11-1.21,2.92-1.78,1.21-2.92,1.21-2.11-.4-2.92-1.21-1.21-1.78-1.21-2.92.4-2.11,1.21-2.92,1.78-1.21,2.92-1.21ZM108.2,154.14c-.76,0-1.4.27-1.94.8-.53.53-.79,1.18-.79,1.94s.26,1.39.79,1.93c.53.53,1.18.8,1.94.8s1.4-.27,1.93-.8c.53-.53.8-1.18.8-1.93s-.27-1.4-.8-1.94c-.53-.53-1.17-.8-1.93-.8Z" style="fill: #007f85;"/>
    <path d="M113.96,164.07c-.22.05-.41,0-.58-.13-.18-.14-.26-.32-.26-.54v-.07c0-.17.05-.31.15-.44.1-.13.23-.21.39-.24.57-.13,1.04-.41,1.42-.85.39-.46.58-.97.58-1.55v-6.77c0-.58-.19-1.09-.58-1.55-.38-.44-.85-.73-1.42-.85-.16-.03-.29-.12-.39-.24-.1-.13-.15-.27-.15-.44v-.06c0-.23.09-.41.26-.54.17-.14.37-.19.58-.14.87.2,1.59.65,2.16,1.35.58.71.87,1.52.87,2.43v6.86c0,.91-.29,1.72-.87,2.43-.57.7-1.29,1.15-2.16,1.35Z" style="fill: #007f85;"/>
    <path d="M122.6,155.31c0,.19-.07.35-.2.48-.14.14-.3.2-.49.2h-3.09c-.19,0-.35-.07-.48-.2-.14-.13-.2-.29-.2-.48h0c0-.21.07-.37.2-.51.13-.14.29-.2.48-.2h3.09c.19,0,.36.07.49.2.14.14.2.3.2.49h0Z" style="fill: #007f85;"/>
    <path d="M124.42,164.09c-.19,0-.35-.07-.48-.2s-.2-.3-.2-.48v-6.56c0-1.14.41-2.11,1.22-2.91.8-.8,1.77-1.2,2.91-1.2s2.11.4,2.92,1.21,1.21,1.78,1.21,2.92-.4,2.11-1.21,2.92-1.78,1.21-2.92,1.21c-1.04,0-1.95-.35-2.73-1.04v3.46c0,.19-.07.35-.2.48-.14.14-.3.2-.48.2h-.02ZM129.79,158.77c.53-.53.8-1.18.8-1.93s-.27-1.4-.8-1.94c-.53-.53-1.17-.79-1.93-.79s-1.4.26-1.94.79c-.53.53-.79,1.18-.79,1.94s.26,1.39.79,1.93c.53.53,1.18.8,1.94.8s1.4-.27,1.93-.8Z" style="fill: #007f85;"/>
    <path d="M140.32,153.94c.81.81,1.21,1.78,1.21,2.92v3.44c0,.19-.07.35-.2.48-.14.14-.3.2-.48.2h-.02c-.19,0-.35-.07-.48-.2-.14-.13-.2-.29-.2-.48v-.35c-.78.69-1.69,1.04-2.73,1.04-1.14,0-2.11-.4-2.92-1.21s-1.21-1.78-1.21-2.92.4-2.11,1.21-2.92,1.78-1.21,2.92-1.21,2.11.4,2.92,1.21ZM135.47,154.93c-.53.53-.79,1.18-.79,1.93s.26,1.4.79,1.94c.53.53,1.18.79,1.94.79s1.4-.26,1.93-.79c.53-.53.8-1.18.8-1.94s-.27-1.39-.8-1.93c-.53-.53-1.17-.8-1.93-.8s-1.4.27-1.94.8Z" style="fill: #007f85;"/>
    <path d="M144.44,157.56c0,.56.2,1.04.59,1.44.4.39.88.59,1.44.59s1.04-.2,1.44-.59c.39-.4.59-.88.59-1.44v-4.14c0-.19.07-.36.2-.49s.3-.2.49-.2h.01c.19,0,.35.07.48.2.14.14.2.3.2.49v4.14c0,.94-.34,1.75-1.01,2.42-.67.67-1.48,1.01-2.42,1.01s-1.76-.33-2.43-1.01c-.67-.67-1.01-1.48-1.01-2.42v-4.14c0-.19.07-.36.2-.49s.3-.2.48-.2h.02c.19,0,.35.07.48.2.14.14.2.3.2.49v4.14Z" style="fill: #007f85;"/>
    <path d="M153.53,154.13c-.28,0-.52.1-.72.29-.2.2-.29.44-.29.72,0,.39.19.69.56.88.12.06.55.19,1.31.39.56.16.98.37,1.24.62.37.35.56.86.56,1.53s-.23,1.23-.7,1.71c-.47.47-1.04.7-1.71.7h-1.97c-.19,0-.35-.07-.48-.2-.14-.13-.2-.29-.2-.48h0c0-.21.07-.37.2-.51s.3-.2.48-.2h2.05c.28,0,.52-.1.72-.3.2-.2.29-.44.29-.72,0-.37-.19-.65-.56-.83-.09-.04-.52-.17-1.31-.39-.56-.17-.97-.38-1.24-.64-.37-.37-.56-.89-.56-1.57s.23-1.23.7-1.7,1.04-.71,1.71-.71h1.39c.19,0,.35.07.49.2.14.14.2.3.2.49h0c0,.21-.07.37-.2.5-.14.14-.3.2-.49.2h-1.47Z" style="fill: #007f85;"/>
    <path d="M165.04,155.14c.08.17.09.35.02.53-.07.18-.19.31-.36.39-.71.32-1.63.74-2.78,1.25-1.43.65-2.35,1.06-2.77,1.25.54.7,1.26,1.04,2.15,1.04.59,0,1.12-.17,1.6-.52.46-.34.79-.78.97-1.32.11-.31.33-.47.67-.47.24,0,.43.1.57.3.14.19.16.4.08.63-.28.82-.78,1.48-1.48,1.98-.72.52-1.52.78-2.41.78-1.14,0-2.11-.4-2.92-1.21s-1.21-1.78-1.21-2.92.4-2.11,1.21-2.92,1.78-1.21,2.92-1.21c.82,0,1.57.22,2.25.67.67.44,1.17,1.02,1.5,1.74ZM161.29,154.14c-.76,0-1.4.27-1.94.8-.53.53-.79,1.18-.79,1.94,0,.14,0,.27.03.4l4.79-2.16c-.54-.65-1.24-.98-2.09-.98Z" style="fill: #007f85;"/>
    <path d="M174.3,152.73c.19,0,.35.07.49.2.13.14.2.3.2.49h0c0,.21-.06.37-.2.5-.14.14-.3.2-.49.2h-.43c-.47,0-.88.17-1.21.5-.33.33-.49.74-.5,1.21v4.46c0,.19-.07.35-.2.48-.14.14-.3.2-.48.2h-.02c-.19,0-.35-.07-.48-.2-.14-.13-.2-.29-.2-.48v-4.46c0-.86.31-1.6.91-2.2.6-.6,1.34-.91,2.2-.91h.43Z" style="fill: #007f85;"/>
    <path d="M183.47,155.14c.08.17.09.35.02.53-.07.18-.19.31-.36.39-.71.32-1.63.74-2.78,1.25-1.43.65-2.35,1.06-2.77,1.25.54.7,1.26,1.04,2.15,1.04.59,0,1.12-.17,1.6-.52.46-.34.79-.78.97-1.32.11-.31.33-.47.67-.47.24,0,.43.1.57.3.14.19.16.4.08.63-.28.82-.78,1.48-1.48,1.98-.72.52-1.52.78-2.41.78-1.14,0-2.11-.4-2.92-1.21s-1.21-1.78-1.21-2.92.4-2.11,1.21-2.92,1.78-1.21,2.92-1.21c.82,0,1.57.22,2.25.67.67.44,1.17,1.02,1.5,1.74ZM179.72,154.14c-.76,0-1.4.27-1.94.8-.53.53-.79,1.18-.79,1.94,0,.14,0,.27.03.4l4.79-2.16c-.54-.65-1.24-.98-2.09-.98ZM181.62,150.31c.08-.08.09-.18.02-.3-.05-.11-.14-.17-.26-.17h-1.16c-.1,0-.18.04-.23.11l-1.33,1.9c-.07.1-.08.2-.03.3.05.11.14.16.26.16h.58c.07,0,.15-.04.23-.11l1.91-1.89Z" style="fill: #007f85;"/>
    <path d="M188.92,162.69c.69,0,1.31-.27,1.87-.8.58-.55.86-1.19.86-1.93v-.02c-.78.69-1.69,1.04-2.73,1.04-1.14,0-2.11-.4-2.92-1.21s-1.21-1.78-1.21-2.92.4-2.11,1.21-2.92,1.78-1.21,2.92-1.21,2.1.4,2.91,1.2c.81.8,1.21,1.77,1.22,2.91v3.12c0,1.11-.43,2.09-1.3,2.92-.84.81-1.78,1.21-2.83,1.21-1.62,0-2.83-.62-3.63-1.88-.12-.19-.15-.39-.08-.6.07-.21.21-.36.42-.43h.02c.34-.12.61-.03.81.26.54.83,1.36,1.24,2.45,1.24ZM191.65,156.81c0-.75-.28-1.38-.82-1.9-.53-.52-1.17-.79-1.91-.79s-1.4.27-1.94.8c-.53.53-.79,1.18-.79,1.93s.26,1.4.79,1.94c.53.53,1.18.79,1.94.79s1.4-.26,1.93-.79c.53-.53.8-1.18.8-1.94v-.05Z" style="fill: #007f85;"/>
    <path d="M202.21,155.14c.08.17.09.35.02.53-.07.18-.19.31-.36.39-.71.32-1.63.74-2.78,1.25-1.43.65-2.35,1.06-2.77,1.25.54.7,1.26,1.04,2.15,1.04.59,0,1.12-.17,1.6-.52.46-.34.79-.78.97-1.32.11-.31.33-.47.67-.47.24,0,.43.1.57.3.14.19.16.4.08.63-.28.82-.78,1.48-1.48,1.98-.72.52-1.52.78-2.41.78-1.14,0-2.11-.4-2.92-1.21s-1.21-1.78-1.21-2.92.4-2.11,1.21-2.92,1.78-1.21,2.92-1.21c.82,0,1.57.22,2.25.67.67.44,1.17,1.02,1.5,1.74ZM198.46,154.14c-.76,0-1.4.27-1.94.8-.53.53-.79,1.18-.79,1.94,0,.14,0,.27.03.4l4.79-2.16c-.54-.65-1.24-.98-2.09-.98ZM200.36,150.31c.08-.08.09-.18.02-.3-.05-.11-.14-.17-.26-.17h-1.16c-.1,0-.18.04-.23.11l-1.33,1.9c-.07.1-.08.2-.03.3.05.11.14.16.26.16h.58c.07,0,.15-.04.23-.11l1.91-1.89Z" style="fill: #007f85;"/>
    <path d="M205.16,160.29c0,.19-.07.35-.2.48-.14.14-.3.2-.48.2h-.02c-.19,0-.35-.07-.48-.2-.14-.13-.2-.29-.2-.48v-4.14c0-.95.33-1.76,1.01-2.43.67-.67,1.48-1.01,2.43-1.01s1.75.33,2.42,1.01,1.01,1.48,1.01,2.43v4.14c0,.19-.07.35-.2.48-.13.14-.29.2-.48.2h-.01c-.19,0-.36-.07-.49-.2-.14-.13-.2-.29-.2-.48v-4.14c0-.56-.2-1.04-.59-1.44-.4-.4-.88-.6-1.44-.6s-1.05.2-1.44.6c-.39.4-.59.88-.59,1.44v4.14Z" style="fill: #007f85;"/>
    <path d="M219.78,155.14c.08.17.09.35.02.53-.07.18-.19.31-.36.39-.71.32-1.63.74-2.78,1.25-1.43.65-2.35,1.06-2.77,1.25.54.7,1.26,1.04,2.15,1.04.59,0,1.12-.17,1.6-.52.46-.34.79-.78.97-1.32.11-.31.33-.47.67-.47.24,0,.43.1.57.3.14.19.16.4.08.63-.28.82-.78,1.48-1.48,1.98-.72.52-1.52.78-2.41.78-1.14,0-2.11-.4-2.92-1.21s-1.21-1.78-1.21-2.92.4-2.11,1.21-2.92,1.78-1.21,2.92-1.21c.82,0,1.57.22,2.25.67.67.44,1.17,1.02,1.5,1.74ZM216.03,154.14c-.76,0-1.4.27-1.94.8-.53.53-.79,1.18-.79,1.94,0,.14,0,.27.03.4l4.79-2.16c-.54-.65-1.24-.98-2.09-.98ZM217.93,150.31c.08-.08.09-.18.02-.3-.05-.11-.14-.17-.26-.17h-1.16c-.1,0-.18.04-.23.11l-1.33,1.9c-.07.1-.08.2-.03.3.05.11.14.16.26.16h.58c.07,0,.15-.04.23-.11l1.91-1.89Z" style="fill: #007f85;"/>
    <path d="M224.87,152.73c.19,0,.35.07.49.2.13.14.2.3.2.49h0c0,.21-.06.37-.2.5-.14.14-.3.2-.49.2h-.43c-.47,0-.88.17-1.21.5-.33.33-.49.74-.5,1.21v4.46c0,.19-.07.35-.2.48-.14.14-.3.2-.48.2h-.02c-.19,0-.35-.07-.48-.2-.14-.13-.2-.29-.2-.48v-4.46c0-.86.31-1.6.91-2.2.6-.6,1.34-.91,2.2-.91h.43Z" style="fill: #007f85;"/>
    <path d="M233.44,153.94c.81.81,1.21,1.78,1.21,2.92v3.44c0,.19-.07.35-.2.48-.14.14-.3.2-.48.2h-.02c-.19,0-.35-.07-.48-.2-.14-.13-.2-.29-.2-.48v-.35c-.78.69-1.69,1.04-2.73,1.04-1.14,0-2.11-.4-2.92-1.21s-1.21-1.78-1.21-2.92.4-2.11,1.21-2.92,1.78-1.21,2.92-1.21,2.11.4,2.92,1.21ZM228.58,154.93c-.53.53-.79,1.18-.79,1.93s.26,1.4.79,1.94c.53.53,1.18.79,1.94.79s1.4-.26,1.93-.79c.53-.53.8-1.18.8-1.94s-.27-1.39-.8-1.93c-.53-.53-1.17-.8-1.93-.8s-1.4.27-1.94.8Z" style="fill: #007f85;"/>
    <path d="M236.87,149.63c.19,0,.35.07.48.2.14.14.2.3.2.49v2.41h1.36c.19,0,.35.07.48.2s.2.3.2.49h0c0,.21-.07.37-.2.5-.14.14-.3.2-.48.2h-1.36v4.71c0,.21.07.38.22.53.15.15.32.22.54.22h.6c.19,0,.35.07.48.2s.2.3.2.49h0c0,.21-.07.37-.2.5-.14.14-.3.2-.48.2h-.6c-.59,0-1.1-.21-1.53-.63-.42-.42-.63-.93-.63-1.52v-8.52c0-.19.07-.36.2-.49.14-.13.3-.2.48-.2h.02Z" style="fill: #007f85;"/>
    <path d="M244.2,152.73c.19,0,.35.07.49.2.13.14.2.3.2.49h0c0,.21-.06.37-.2.5-.14.14-.3.2-.49.2h-.43c-.47,0-.88.17-1.21.5-.33.33-.49.74-.5,1.21v4.46c0,.19-.07.35-.2.48-.14.14-.3.2-.48.2h-.02c-.19,0-.35-.07-.48-.2-.14-.13-.2-.29-.2-.48v-4.46c0-.86.31-1.6.91-2.2.6-.6,1.34-.91,2.2-.91h.43Z" style="fill: #007f85;"/>
    <path d="M246.7,151.29c-.23,0-.43-.08-.59-.24-.16-.16-.24-.36-.24-.59s.08-.42.24-.58c.16-.16.36-.24.59-.24s.42.08.58.24c.17.16.25.36.25.58s-.08.43-.25.59c-.16.16-.36.24-.58.24ZM246.71,152.73c.19,0,.35.07.48.2.14.14.2.3.2.49v6.87c0,.19-.07.35-.2.48-.13.14-.29.2-.48.2h-.01c-.19,0-.36-.07-.49-.2-.14-.13-.2-.29-.2-.48v-6.87c0-.19.07-.36.2-.49s.3-.2.49-.2h.01Z" style="fill: #007f85;"/>
    <path d="M254.35,152.92c.32.1.48.32.48.66v.04c0,.23-.09.42-.28.55-.19.14-.4.18-.62.11-.27-.09-.54-.14-.83-.14-.76,0-1.4.27-1.94.8-.53.53-.79,1.18-.79,1.94s.26,1.39.79,1.93c.53.53,1.18.8,1.94.8.29,0,.56-.04.83-.13.22-.07.43-.04.62.1.19.14.28.32.28.56,0,.33-.16.55-.48.66-.4.13-.82.19-1.25.19-1.14,0-2.11-.4-2.92-1.21s-1.21-1.78-1.21-2.92.4-2.11,1.21-2.92,1.78-1.21,2.92-1.21c.43,0,.84.06,1.25.2Z" style="fill: #007f85;"/>
    <path d="M263.77,155.14c.08.17.09.35.02.53-.07.18-.19.31-.36.39-.71.32-1.63.74-2.78,1.25-1.43.65-2.35,1.06-2.77,1.25.54.7,1.26,1.04,2.15,1.04.59,0,1.12-.17,1.6-.52.46-.34.79-.78.97-1.32.11-.31.33-.47.67-.47.24,0,.43.1.57.3.14.19.16.4.08.63-.28.82-.78,1.48-1.48,1.98-.72.52-1.52.78-2.41.78-1.14,0-2.11-.4-2.92-1.21s-1.21-1.78-1.21-2.92.4-2.11,1.21-2.92,1.78-1.21,2.92-1.21c.82,0,1.57.22,2.25.67.67.44,1.17,1.02,1.5,1.74ZM260.02,154.14c-.76,0-1.4.27-1.94.8-.53.53-.79,1.18-.79,1.94,0,.14,0,.27.03.4l4.79-2.16c-.54-.65-1.24-.98-2.09-.98Z" style="fill: #007f85;"/>
  </g>
  <g>
    <path d="M43.33,104.12c-3.21,0-5.97,1.16-8.21,3.4-2.25,2.31-3.4,5.01-3.4,8.21s1.16,5.9,3.4,8.21c2.31,2.31,5.01,3.4,8.21,3.4s5.97-1.15,8.21-3.4c2.25-2.25,3.4-5.01,3.4-8.21s-1.16-5.97-3.4-8.21c-2.25-2.25-4.94-3.4-8.21-3.4ZM29.92,88.14c.51,0,.9.19,1.28.51.39.39.51.77.51,1.28v15.59c3.85-3.47,7.76-5.2,11.62-5.2,4.24,0,7.89,1.48,10.85,4.49,2.95,3.02,4.49,6.61,4.49,10.85s-1.48,7.89-4.49,10.85c-3.02,3.02-6.61,4.49-10.85,4.49s-7.83-1.48-10.85-4.49c-3.02-3.02-4.49-6.61-4.56-10.78v-25.8c0-.51.19-.96.51-1.28.39-.32.77-.51,1.28-.51h.19Z" style="fill: #007f85;"/>
    <path d="M80.68,104.12c-3.21,0-5.97,1.16-8.21,3.4-2.25,2.31-3.4,5.01-3.4,8.21,0,.58.13,1.54.32,2.89l20.98-9.5c-2.89-3.34-6.1-5.01-9.69-5.01ZM94.67,109.32c.19.45.26.9.06,1.41-.19.45-.51.77-.96,1.03-2.76,1.22-6.42,2.89-10.97,4.94-5.65,2.57-9.63,4.36-11.94,5.39,2.76,3.59,6.03,5.33,9.88,5.33,2.5,0,4.81-.77,6.87-2.25,1.99-1.41,3.34-3.27,4.11-5.58.32-.83.9-1.22,1.8-1.22.64,0,1.16.26,1.54.77.39.51.45,1.09.19,1.67-1.03,3.02-2.89,5.52-5.52,7.38-2.7,1.93-5.71,2.89-8.98,2.89-4.24,0-7.89-1.48-10.85-4.49-3.02-3.02-4.49-6.61-4.49-10.85s1.48-7.89,4.49-10.85c3.02-2.95,6.61-4.49,10.85-4.49,3.08,0,5.84.83,8.41,2.5,2.37,1.6,4.24,3.72,5.52,6.42Z" style="fill: #007f85;"/>
    <path d="M179.44,88.14c.51,0,.9.19,1.28.51.39.39.51.77.51,1.28v10.4h6.22c.51,0,.9.19,1.28.51.39.39.51.77.51,1.28v.06c0,.51-.19.9-.51,1.28-.39.39-.77.51-1.28.51h-6.22v19.44c0,1.03.39,1.93,1.16,2.7.77.77,1.67,1.16,2.76,1.16h2.37c.51,0,.9.19,1.28.51.39.39.51.77.51,1.28v.06c0,.51-.19.9-.51,1.28-.39.39-.77.51-1.28.51h-2.37c-2.12,0-3.91-.71-5.39-2.18-1.48-1.48-2.18-3.27-2.18-5.33v-33.5c0-.51.19-.96.51-1.28.39-.32.77-.51,1.28-.51h.06Z" style="fill: #007f85;"/>
    <path d="M210.37,104.12c-3.21,0-5.97,1.16-8.21,3.4-2.25,2.31-3.4,5.01-3.4,8.21s1.16,5.9,3.4,8.21c2.31,2.31,5.01,3.4,8.21,3.4s5.97-1.15,8.21-3.4c2.31-2.31,3.4-5.01,3.4-8.21s-1.15-5.97-3.4-8.21c-2.25-2.25-5.01-3.4-8.21-3.4ZM210.37,100.33c4.24,0,7.89,1.48,10.85,4.49,3.02,3.02,4.49,6.61,4.49,10.85s-1.48,7.89-4.49,10.85c-3.02,3.02-6.61,4.49-10.85,4.49s-7.89-1.48-10.85-4.49c-3.02-3.02-4.49-6.61-4.49-10.85s1.48-7.89,4.49-10.85c3.02-2.95,6.61-4.49,10.85-4.49Z" style="fill: #007f85;"/>
    <path d="M248.62,127.29c3.21,0,5.97-1.15,8.21-3.4,2.31-2.31,3.4-5.01,3.4-8.21s-1.16-5.97-3.4-8.21c-2.25-2.25-5-3.4-8.21-3.4s-5.97,1.16-8.21,3.4c-2.25,2.31-3.4,5.01-3.4,8.21s1.15,5.9,3.4,8.21c2.25,2.25,5.01,3.4,8.21,3.4ZM235.08,143.33c-.51,0-.9-.19-1.28-.51-.39-.39-.51-.77-.51-1.28v-25.86c0-4.24,1.54-7.83,4.49-10.85,2.95-2.95,6.61-4.49,10.85-4.49s7.89,1.48,10.84,4.49c3.02,3.02,4.49,6.61,4.49,10.85s-1.48,7.89-4.49,10.85c-3.01,3.02-6.61,4.49-10.84,4.49-3.91,0-7.76-1.73-11.62-5.2v15.59c0,.51-.19.9-.51,1.28-.39.38-.77.51-1.28.51h-.13v.13Z" style="fill: #007f85;"/>
    <g style="clip-path: url(#clippath);">
      <polygon points="163.4 88.72 144.98 82.88 163.4 82.88 163.4 88.72" style="fill: #007f85;"/>
      <polygon points="163.4 89.26 143.28 82.88 144.98 82.88 163.4 88.72 163.4 89.26" style="fill: #007f85;"/>
      <polygon points="163.4 89.8 141.59 82.88 143.28 82.88 163.4 89.26 163.4 89.8" style="fill: #018086;"/>
      <polygon points="163.4 90.33 139.89 82.88 141.59 82.88 163.4 89.8 163.4 90.33" style="fill: #018187;"/>
      <polygon points="163.4 90.87 138.2 82.88 139.89 82.88 163.4 90.33 163.4 90.87" style="fill: #028288;"/>
      <polygon points="163.4 91.41 136.5 82.88 138.2 82.88 163.4 90.87 163.4 91.41" style="fill: #028389;"/>
      <polygon points="163.4 91.95 134.8 82.88 136.5 82.88 163.4 91.41 163.4 91.95" style="fill: #03848a;"/>
      <polygon points="163.4 92.49 133.11 82.88 134.8 82.88 163.4 91.95 163.4 92.49" style="fill: #03858b;"/>
      <polygon points="163.4 93.02 131.41 82.88 133.11 82.88 163.4 92.49 163.4 93.02" style="fill: #04868c;"/>
      <polygon points="163.4 93.56 129.72 82.88 131.41 82.88 163.4 93.02 163.4 93.56" style="fill: #04878d;"/>
      <polygon points="163.4 94.1 128.02 82.88 129.72 82.88 163.4 93.56 163.4 94.1" style="fill: #05888e;"/>
      <polygon points="163.4 94.64 126.32 82.88 128.02 82.88 163.4 94.1 163.4 94.64" style="fill: #05898f;"/>
      <polygon points="163.4 95.18 124.63 82.88 126.32 82.88 163.4 94.64 163.4 95.18" style="fill: #068a90;"/>
      <polygon points="163.4 95.71 122.93 82.88 124.63 82.88 163.4 95.18 163.4 95.71" style="fill: #068b91;"/>
      <polygon points="163.4 96.25 121.24 82.88 122.93 82.88 163.4 95.71 163.4 96.25" style="fill: #078c92;"/>
      <polygon points="163.4 96.79 119.54 82.88 121.24 82.88 163.4 96.25 163.4 96.79" style="fill: #078d93;"/>
      <polygon points="163.4 97.33 117.84 82.88 119.54 82.88 163.4 96.79 163.4 97.33" style="fill: #088e94;"/>
      <polygon points="163.4 97.87 116.15 82.88 117.84 82.88 163.4 97.33 163.4 97.87" style="fill: #088f95;"/>
      <polygon points="163.4 98.4 114.45 82.88 116.15 82.88 163.4 97.87 163.4 98.4" style="fill: #099096;"/>
      <polygon points="163.4 98.94 112.76 82.88 114.45 82.88 163.4 98.4 163.4 98.94" style="fill: #0a9197;"/>
      <polygon points="163.4 99.48 111.06 82.88 112.76 82.88 163.4 98.94 163.4 99.48" style="fill: #0a9298;"/>
      <polygon points="163.4 100.02 110.13 83.12 110.21 82.88 111.06 82.88 163.4 99.48 163.4 100.02" style="fill: #0b9399;"/>
      <polygon points="163.4 100.56 109.98 83.61 110.13 83.12 163.4 100.02 163.4 100.56" style="fill: #0b949a;"/>
      <polygon points="163.4 101.1 109.82 84.1 109.98 83.61 163.4 100.56 163.4 101.1" style="fill: #0c959b;"/>
      <polygon points="163.4 101.63 109.67 84.59 109.82 84.1 163.4 101.1 163.4 101.63" style="fill: #0c969c;"/>
      <polygon points="163.4 102.17 109.51 85.08 109.67 84.59 163.4 101.63 163.4 102.17" style="fill: #0d979d;"/>
      <polygon points="163.4 102.71 109.36 85.57 109.51 85.08 163.4 102.17 163.4 102.71" style="fill: #0d989e;"/>
      <polygon points="163.4 103.25 109.2 86.06 109.36 85.57 163.4 102.71 163.4 103.25" style="fill: #0e989f;"/>
      <polygon points="163.4 103.79 109.05 86.54 109.2 86.06 163.4 103.25 163.4 103.79" style="fill: #0e99a0;"/>
      <polygon points="163.4 104.32 108.89 87.03 109.05 86.54 163.4 103.79 163.4 104.32" style="fill: #0f9aa1;"/>
      <polygon points="163.4 104.86 108.74 87.52 108.89 87.03 163.4 104.32 163.4 104.86" style="fill: #0f9ba2;"/>
      <polygon points="163.4 105.4 108.58 88.01 108.74 87.52 163.4 104.86 163.4 105.4" style="fill: #109ca3;"/>
      <polygon points="163.4 105.94 108.43 88.5 108.58 88.01 163.4 105.4 163.4 105.94" style="fill: #109da4;"/>
      <polygon points="163.4 106.48 108.27 88.99 108.43 88.5 163.4 105.94 163.4 106.48" style="fill: #119ea5;"/>
      <polygon points="163.4 107.01 108.12 89.48 108.27 88.99 163.4 106.48 163.4 107.01" style="fill: #119fa6;"/>
      <polygon points="163.4 107.55 107.96 89.97 108.12 89.48 163.4 107.01 163.4 107.55" style="fill: #12a0a7;"/>
      <polygon points="163.4 108.09 107.81 90.45 107.96 89.97 163.4 107.55 163.4 108.09" style="fill: #13a1a8;"/>
      <polygon points="163.4 108.63 107.65 90.94 107.81 90.45 163.4 108.09 163.4 108.63" style="fill: #13a2a9;"/>
      <polygon points="163.4 109.17 107.5 91.43 107.65 90.94 163.4 108.63 163.4 109.17" style="fill: #14a3aa;"/>
      <polygon points="163.4 109.7 107.34 91.92 107.5 91.43 163.4 109.17 163.4 109.7" style="fill: #14a4ab;"/>
      <polygon points="163.4 110.24 107.19 92.41 107.34 91.92 163.4 109.7 163.4 110.24" style="fill: #15a5ac;"/>
      <polygon points="163.4 110.78 107.03 92.9 107.19 92.41 163.4 110.24 163.4 110.78" style="fill: #15a6ad;"/>
      <polygon points="163.4 111.32 106.88 93.39 107.03 92.9 163.4 110.78 163.4 111.32" style="fill: #16a7ae;"/>
      <polygon points="163.4 111.86 106.72 93.88 106.88 93.39 163.4 111.32 163.4 111.86" style="fill: #16a8af;"/>
      <polygon points="163.4 112.39 106.57 94.37 106.72 93.88 163.4 111.86 163.4 112.39" style="fill: #17a9b0;"/>
      <polygon points="163.4 112.93 106.41 94.85 106.57 94.37 163.4 112.39 163.4 112.93" style="fill: #17aab1;"/>
      <polygon points="163.4 113.47 106.26 95.34 106.41 94.85 163.4 112.93 163.4 113.47" style="fill: #18abb2;"/>
      <polygon points="163.4 114.01 106.1 95.83 106.26 95.34 163.4 113.47 163.4 114.01" style="fill: #18acb3;"/>
      <polygon points="163.4 114.55 105.95 96.32 106.1 95.83 163.4 114.01 163.4 114.55" style="fill: #19adb4;"/>
      <polygon points="163.4 115.08 105.79 96.81 105.95 96.32 163.4 114.55 163.4 115.08" style="fill: #19aeb5;"/>
      <polygon points="163.4 115.62 105.64 97.3 105.79 96.81 163.4 115.08 163.4 115.62" style="fill: #1aafb6;"/>
      <polygon points="163.4 116.16 105.48 97.79 105.64 97.3 163.4 115.62 163.4 116.16" style="fill: #1bb0b8;"/>
      <polygon points="163.4 116.7 105.33 98.28 105.48 97.79 163.4 116.16 163.4 116.7" style="fill: #1bb1b9;"/>
      <polygon points="163.4 117.24 105.17 98.76 105.33 98.28 163.4 116.7 163.4 117.24" style="fill: #1cb2ba;"/>
      <polygon points="163.4 117.77 105.02 99.25 105.17 98.76 163.4 117.24 163.4 117.77" style="fill: #1cb3bb;"/>
      <polygon points="163.4 118.31 104.86 99.74 105.02 99.25 163.4 117.77 163.4 118.31" style="fill: #1db4bc;"/>
      <polygon points="163.4 118.85 104.71 100.23 104.86 99.74 163.4 118.31 163.4 118.85" style="fill: #1db5bd;"/>
      <polygon points="163.4 119.39 104.55 100.72 104.71 100.23 163.4 118.85 163.4 119.39" style="fill: #1eb6be;"/>
      <polygon points="163.4 119.93 104.4 101.21 104.55 100.72 163.4 119.39 163.4 119.93" style="fill: #1eb7bf;"/>
      <polygon points="163.4 120.46 104.24 101.7 104.4 101.21 163.4 119.93 163.4 120.46" style="fill: #1fb8c0;"/>
      <polygon points="163.4 121 104.09 102.19 104.24 101.7 163.4 120.46 163.4 121" style="fill: #1fb9c1;"/>
      <polygon points="163.4 121.54 103.93 102.68 104.09 102.19 163.4 121 163.4 121.54" style="fill: #20bac2;"/>
      <polygon points="163.4 122.08 103.78 103.16 103.93 102.68 163.4 121.54 163.4 122.08" style="fill: #20bbc3;"/>
      <polygon points="163.4 122.62 103.62 103.65 103.78 103.16 163.4 122.08 163.4 122.62" style="fill: #21bcc4;"/>
      <polygon points="163.4 123.15 103.47 104.14 103.62 103.65 163.4 122.62 163.4 123.15" style="fill: #21bdc5;"/>
      <polygon points="163.4 123.69 103.33 104.64 103.33 104.56 103.47 104.14 163.4 123.15 163.4 123.69" style="fill: #22bec6;"/>
      <polygon points="163.4 124.1 163.36 124.22 103.33 105.18 103.33 104.64 163.4 123.69 163.4 124.1" style="fill: #22bfc7;"/>
      <polygon points="163.36 124.22 163.2 124.71 103.33 105.71 103.33 105.18 163.36 124.22" style="fill: #23c0c8;"/>
      <polygon points="163.2 124.71 163.05 125.2 103.33 106.25 103.33 105.71 163.2 124.71" style="fill: #24c1c9;"/>
      <polygon points="163.05 125.2 162.89 125.68 103.33 106.79 103.33 106.25 163.05 125.2" style="fill: #24c2ca;"/>
      <polygon points="162.89 125.68 162.74 126.17 103.33 107.33 103.33 106.79 162.89 125.68" style="fill: #25c3cb;"/>
      <polygon points="162.74 126.17 162.58 126.66 103.33 107.87 103.33 107.33 162.74 126.17" style="fill: #25c4cc;"/>
      <polygon points="162.58 126.66 162.43 127.15 103.33 108.4 103.33 107.87 162.58 126.66" style="fill: #26c5cd;"/>
      <polygon points="162.43 127.15 162.27 127.64 103.33 108.94 103.33 108.4 162.43 127.15" style="fill: #26c6ce;"/>
      <polygon points="162.27 127.64 162.12 128.13 103.33 109.48 103.33 108.94 162.27 127.64" style="fill: #27c7cf;"/>
      <polygon points="162.12 128.13 161.96 128.62 103.33 110.02 103.33 109.48 162.12 128.13" style="fill: #27c8d0;"/>
      <polygon points="161.96 128.62 161.81 129.11 103.33 110.56 103.33 110.02 161.96 128.62" style="fill: #28c9d1;"/>
      <polygon points="161.81 129.11 161.65 129.59 103.33 111.09 103.33 110.56 161.81 129.11" style="fill: #28c9d2;"/>
      <polygon points="161.65 129.59 161.5 130.08 103.33 111.63 103.33 111.09 161.65 129.59" style="fill: #29cad3;"/>
      <polygon points="161.5 130.08 161.34 130.57 103.33 112.17 103.33 111.63 161.5 130.08" style="fill: #29cbd4;"/>
      <polygon points="161.34 130.57 161.19 131.06 103.33 112.71 103.33 112.17 161.34 130.57" style="fill: #2accd5;"/>
      <polygon points="161.19 131.06 161.03 131.55 103.33 113.25 103.33 112.71 161.19 131.06" style="fill: #2acdd6;"/>
      <polygon points="161.03 131.55 160.88 132.04 103.33 113.78 103.33 113.25 161.03 131.55" style="fill: #2bced7;"/>
      <polygon points="160.88 132.04 160.72 132.53 103.33 114.32 103.33 113.78 160.88 132.04" style="fill: #2bcfd8;"/>
      <polygon points="160.72 132.53 160.57 133.02 103.33 114.86 103.33 114.32 160.72 132.53" style="fill: #2cd0d9;"/>
      <polygon points="160.57 133.02 160.41 133.51 103.33 115.4 103.33 114.86 160.57 133.02" style="fill: #2dd1da;"/>
      <polygon points="160.41 133.51 160.26 133.99 103.33 115.94 103.33 115.4 160.41 133.51" style="fill: #2dd2db;"/>
      <polygon points="160.26 133.99 160.1 134.48 103.33 116.47 103.33 115.94 160.26 133.99" style="fill: #2ed3dc;"/>
      <polygon points="160.1 134.48 159.95 134.97 103.33 117.01 103.33 116.47 160.1 134.48" style="fill: #2ed4dd;"/>
      <polygon points="159.95 134.97 159.79 135.46 103.33 117.55 103.33 117.01 159.95 134.97" style="fill: #2fd5de;"/>
      <polygon points="159.79 135.46 159.64 135.95 103.33 118.09 103.33 117.55 159.79 135.46" style="fill: #2fd6df;"/>
      <polygon points="159.64 135.95 159.48 136.44 103.33 118.63 103.33 118.09 159.64 135.95" style="fill: #30d7e0;"/>
      <polygon points="159.48 136.44 159.33 136.93 103.33 119.16 103.33 118.63 159.48 136.44" style="fill: #30d8e1;"/>
      <polygon points="159.33 136.93 159.17 137.42 103.33 119.7 103.33 119.16 159.33 136.93" style="fill: #31d9e2;"/>
      <polygon points="159.17 137.42 159.02 137.9 103.33 120.24 103.33 119.7 159.17 137.42" style="fill: #31dae3;"/>
      <polygon points="159.02 137.9 158.86 138.39 103.33 120.78 103.33 120.24 159.02 137.9" style="fill: #32dbe4;"/>
      <polygon points="158.86 138.39 158.71 138.88 103.33 121.32 103.33 120.78 158.86 138.39" style="fill: #32dce5;"/>
      <polygon points="158.71 138.88 158.55 139.37 103.33 121.85 103.33 121.32 158.71 138.88" style="fill: #33dde6;"/>
      <polygon points="158.55 139.37 158.4 139.86 103.33 122.39 103.33 121.85 158.55 139.37" style="fill: #33dee7;"/>
      <polygon points="158.4 139.86 158.24 140.35 103.33 122.93 103.33 122.39 158.4 139.86" style="fill: #34dfe8;"/>
      <polygon points="158.24 140.35 158.09 140.84 103.33 123.47 103.33 122.93 158.24 140.35" style="fill: #34e0e9;"/>
      <polygon points="158.09 140.84 157.93 141.33 103.33 124.01 103.33 123.47 158.09 140.84" style="fill: #35e1ea;"/>
      <polygon points="157.93 141.33 157.84 141.6 103.33 124.31 103.33 124.01 157.93 141.33" style="fill: #35e1ea;"/>
      <polygon points="157.84 141.6 157.76 141.87 103.33 124.61 103.33 124.31 157.84 141.6" style="fill: #36e1ea;"/>
      <polygon points="157.76 141.87 157.67 142.15 103.33 124.91 103.33 124.61 157.76 141.87" style="fill: #37e2eb;"/>
      <polygon points="157.67 142.15 157.58 142.42 103.33 125.21 103.33 124.91 157.67 142.15" style="fill: #38e2eb;"/>
      <polygon points="157.58 142.42 157.5 142.7 103.33 125.51 103.33 125.21 157.58 142.42" style="fill: #39e2eb;"/>
      <polygon points="157.5 142.7 157.41 142.97 103.33 125.81 103.33 125.51 157.5 142.7" style="fill: #3ae3eb;"/>
      <polygon points="157.41 142.97 157.32 143.24 103.33 126.12 103.33 125.81 157.41 142.97" style="fill: #3be3ec;"/>
      <polygon points="157.32 143.24 157.24 143.52 103.33 126.42 103.33 126.12 157.32 143.24" style="fill: #3ce3ec;"/>
      <polygon points="157.24 143.52 157.15 143.79 103.33 126.72 103.33 126.42 157.24 143.52" style="fill: #3de3ec;"/>
      <polygon points="157.15 143.79 157.06 144.07 103.33 127.02 103.33 126.72 157.15 143.79" style="fill: #3ee4ec;"/>
      <polygon points="157.06 144.07 156.98 144.34 103.33 127.32 103.33 127.02 157.06 144.07" style="fill: #3fe4ed;"/>
      <polygon points="156.98 144.34 156.95 144.42 156.28 144.42 103.33 127.62 103.33 127.32 156.98 144.34" style="fill: #40e4ed;"/>
      <polygon points="155.33 144.42 103.33 127.92 103.33 127.62 156.28 144.42 155.33 144.42" style="fill: #41e5ed;"/>
      <polygon points="154.38 144.42 103.33 128.23 103.33 127.92 155.33 144.42 154.38 144.42" style="fill: #42e5ed;"/>
      <polygon points="153.43 144.42 103.33 128.53 103.33 128.23 154.38 144.42 153.43 144.42" style="fill: #43e5ee;"/>
      <polygon points="152.48 144.42 103.33 128.83 103.33 128.53 153.43 144.42 152.48 144.42" style="fill: #44e6ee;"/>
      <polygon points="151.53 144.42 103.33 129.13 103.33 128.83 152.48 144.42 151.53 144.42" style="fill: #45e6ee;"/>
      <polygon points="150.58 144.42 103.33 129.43 103.33 129.13 151.53 144.42 150.58 144.42" style="fill: #46e6ee;"/>
      <polygon points="149.63 144.42 103.33 129.73 103.33 129.43 150.58 144.42 149.63 144.42" style="fill: #47e6ef;"/>
      <polygon points="148.68 144.42 103.33 130.03 103.33 129.73 149.63 144.42 148.68 144.42" style="fill: #48e7ef;"/>
      <polygon points="147.73 144.42 103.33 130.34 103.33 130.03 148.68 144.42 147.73 144.42" style="fill: #49e7ef;"/>
      <polygon points="146.78 144.42 103.33 130.64 103.33 130.34 147.73 144.42 146.78 144.42" style="fill: #4ae7f0;"/>
      <polygon points="145.83 144.42 103.33 130.94 103.33 130.64 146.78 144.42 145.83 144.42" style="fill: #4be8f0;"/>
      <polygon points="144.88 144.42 103.33 131.24 103.33 130.94 145.83 144.42 144.88 144.42" style="fill: #4ce8f0;"/>
      <polygon points="143.93 144.42 103.33 131.54 103.33 131.24 144.88 144.42 143.93 144.42" style="fill: #4de8f0;"/>
      <polygon points="142.98 144.42 103.33 131.84 103.33 131.54 143.93 144.42 142.98 144.42" style="fill: #4ee9f1;"/>
      <polygon points="142.03 144.42 103.33 132.14 103.33 131.84 142.98 144.42 142.03 144.42" style="fill: #4fe9f1;"/>
      <polygon points="141.08 144.42 103.33 132.45 103.33 132.14 142.03 144.42 141.08 144.42" style="fill: #50e9f1;"/>
      <polygon points="140.13 144.42 103.33 132.75 103.33 132.45 141.08 144.42 140.13 144.42" style="fill: #51e9f1;"/>
      <polygon points="139.18 144.42 103.33 133.05 103.33 132.75 140.13 144.42 139.18 144.42" style="fill: #52eaf2;"/>
      <polygon points="138.23 144.42 103.33 133.35 103.33 133.05 139.18 144.42 138.23 144.42" style="fill: #53eaf2;"/>
      <polygon points="137.28 144.42 103.33 133.65 103.33 133.35 138.23 144.42 137.28 144.42" style="fill: #54eaf2;"/>
      <polygon points="136.33 144.42 103.33 133.95 103.33 133.65 137.28 144.42 136.33 144.42" style="fill: #55ebf2;"/>
      <polygon points="135.38 144.42 103.33 134.25 103.33 133.95 136.33 144.42 135.38 144.42" style="fill: #56ebf3;"/>
      <polygon points="134.43 144.42 103.33 134.56 103.33 134.25 135.38 144.42 134.43 144.42" style="fill: #57ebf3;"/>
      <polygon points="133.48 144.42 103.33 134.86 103.33 134.56 134.43 144.42 133.48 144.42" style="fill: #58ecf3;"/>
      <polygon points="132.53 144.42 103.33 135.16 103.33 134.86 133.48 144.42 132.53 144.42" style="fill: #59ecf3;"/>
      <polygon points="131.58 144.42 103.33 135.46 103.33 135.16 132.53 144.42 131.58 144.42" style="fill: #5aecf4;"/>
      <polygon points="130.63 144.42 103.33 135.76 103.33 135.46 131.58 144.42 130.63 144.42" style="fill: #5becf4;"/>
      <polygon points="129.68 144.42 103.33 136.06 103.33 135.76 130.63 144.42 129.68 144.42" style="fill: #5cedf4;"/>
      <polygon points="128.73 144.42 103.33 136.36 103.33 136.06 129.68 144.42 128.73 144.42" style="fill: #5eedf5;"/>
      <polygon points="127.78 144.42 103.33 136.67 103.33 136.36 128.73 144.42 127.78 144.42" style="fill: #5fedf5;"/>
      <polygon points="126.83 144.42 103.33 136.97 103.33 136.67 127.78 144.42 126.83 144.42" style="fill: #60eef5;"/>
      <polygon points="125.88 144.42 103.33 137.27 103.33 136.97 126.83 144.42 125.88 144.42" style="fill: #61eef5;"/>
      <polygon points="124.93 144.42 103.33 137.57 103.33 137.27 125.88 144.42 124.93 144.42" style="fill: #62eef6;"/>
      <polygon points="123.98 144.42 103.33 137.87 103.33 137.57 124.93 144.42 123.98 144.42" style="fill: #63eff6;"/>
      <polygon points="123.03 144.42 103.33 138.17 103.33 137.87 123.98 144.42 123.03 144.42" style="fill: #64eff6;"/>
      <polygon points="122.08 144.42 103.33 138.47 103.33 138.17 123.03 144.42 122.08 144.42" style="fill: #65eff6;"/>
      <polygon points="121.13 144.42 103.33 138.78 103.33 138.47 122.08 144.42 121.13 144.42" style="fill: #66eff7;"/>
      <polygon points="120.18 144.42 103.33 139.08 103.33 138.78 121.13 144.42 120.18 144.42" style="fill: #67f0f7;"/>
      <polygon points="119.23 144.42 103.33 139.38 103.33 139.08 120.18 144.42 119.23 144.42" style="fill: #68f0f7;"/>
      <polygon points="118.28 144.42 103.33 139.68 103.33 139.38 119.23 144.42 118.28 144.42" style="fill: #69f0f7;"/>
      <polygon points="117.33 144.42 103.33 139.98 103.33 139.68 118.28 144.42 117.33 144.42" style="fill: #6af1f8;"/>
      <polygon points="116.38 144.42 103.33 140.28 103.33 139.98 117.33 144.42 116.38 144.42" style="fill: #6bf1f8;"/>
      <polygon points="115.43 144.42 103.33 140.58 103.33 140.28 116.38 144.42 115.43 144.42" style="fill: #6cf1f8;"/>
      <polygon points="114.48 144.42 103.33 140.89 103.33 140.58 115.43 144.42 114.48 144.42" style="fill: #6df2f8;"/>
      <polygon points="113.53 144.42 103.33 141.19 103.33 140.89 114.48 144.42 113.53 144.42" style="fill: #6ef2f9;"/>
      <polygon points="112.58 144.42 103.33 141.49 103.33 141.19 113.53 144.42 112.58 144.42" style="fill: #6ff2f9;"/>
      <polygon points="111.63 144.42 103.33 141.79 103.33 141.49 112.58 144.42 111.63 144.42" style="fill: #70f2f9;"/>
      <polygon points="110.68 144.42 103.33 142.09 103.33 141.79 111.63 144.42 110.68 144.42" style="fill: #71f3f9;"/>
      <polygon points="109.73 144.42 103.33 142.39 103.33 142.09 110.68 144.42 109.73 144.42" style="fill: #72f3fa;"/>
      <polygon points="108.78 144.42 103.33 142.69 103.33 142.39 109.73 144.42 108.78 144.42" style="fill: #73f3fa;"/>
      <polygon points="107.83 144.42 103.33 142.99 103.33 142.69 108.78 144.42 107.83 144.42" style="fill: #74f4fa;"/>
      <polygon points="106.88 144.42 103.33 143.3 103.33 142.99 107.83 144.42 106.88 144.42" style="fill: #75f4fb;"/>
      <polygon points="105.93 144.42 103.33 143.6 103.33 143.3 106.88 144.42 105.93 144.42" style="fill: #76f4fb;"/>
      <polygon points="104.98 144.42 103.33 143.9 103.33 143.6 105.93 144.42 104.98 144.42" style="fill: #77f5fb;"/>
      <polygon points="104.03 144.42 103.33 144.2 103.33 143.9 104.98 144.42 104.03 144.42" style="fill: #78f5fb;"/>
      <polygon points="103.33 144.2 104.03 144.42 103.33 144.42 103.33 144.2" style="fill: #79f5fc;"/>
      <polygon points="167.5 90.02 134.46 79.54 167.5 79.54 167.5 90.02" style="fill: #007f85;"/>
      <polygon points="167.5 90.56 132.76 79.54 134.46 79.54 167.5 90.02 167.5 90.56" style="fill: #007f85;"/>
      <polygon points="167.5 91.1 131.07 79.54 132.76 79.54 167.5 90.56 167.5 91.1" style="fill: #018086;"/>
      <polygon points="167.5 91.64 129.37 79.54 131.07 79.54 167.5 91.1 167.5 91.64" style="fill: #018187;"/>
      <polygon points="167.5 92.18 127.68 79.54 129.37 79.54 167.5 91.64 167.5 92.18" style="fill: #028288;"/>
      <polygon points="167.5 92.71 125.98 79.54 127.68 79.54 167.5 92.18 167.5 92.71" style="fill: #028389;"/>
      <polygon points="167.5 93.25 124.28 79.54 125.98 79.54 167.5 92.71 167.5 93.25" style="fill: #03848a;"/>
      <polygon points="167.5 93.79 122.59 79.54 124.28 79.54 167.5 93.25 167.5 93.79" style="fill: #03858b;"/>
      <polygon points="167.5 94.33 120.89 79.54 122.59 79.54 167.5 93.79 167.5 94.33" style="fill: #04868c;"/>
      <polygon points="167.5 94.87 119.2 79.54 120.89 79.54 167.5 94.33 167.5 94.87" style="fill: #04878d;"/>
      <polygon points="167.5 95.4 117.5 79.54 119.2 79.54 167.5 94.87 167.5 95.4" style="fill: #05888e;"/>
      <polygon points="167.5 95.94 115.8 79.54 117.5 79.54 167.5 95.4 167.5 95.94" style="fill: #05898f;"/>
      <polygon points="167.5 96.48 114.11 79.54 115.8 79.54 167.5 95.94 167.5 96.48" style="fill: #068a90;"/>
      <polygon points="167.5 97.02 112.41 79.54 114.11 79.54 167.5 96.48 167.5 97.02" style="fill: #068b91;"/>
      <polygon points="167.5 97.56 110.72 79.54 112.41 79.54 167.5 97.02 167.5 97.56" style="fill: #078c92;"/>
      <polygon points="167.5 98.09 109.02 79.54 110.72 79.54 167.5 97.56 167.5 98.09" style="fill: #078d93;"/>
      <polygon points="167.5 98.63 108.67 79.97 108.8 79.54 109.02 79.54 167.5 98.09 167.5 98.63" style="fill: #088e94;"/>
      <polygon points="167.5 99.17 108.51 80.46 108.67 79.97 167.5 98.63 167.5 99.17" style="fill: #088f95;"/>
      <polygon points="167.5 99.71 108.36 80.94 108.51 80.46 167.5 99.17 167.5 99.71" style="fill: #099096;"/>
      <polygon points="167.5 100.25 108.2 81.43 108.36 80.94 167.5 99.71 167.5 100.25" style="fill: #0a9197;"/>
      <polygon points="167.5 100.78 108.05 81.92 108.2 81.43 167.5 100.25 167.5 100.78" style="fill: #0a9298;"/>
      <polygon points="167.5 101.32 107.89 82.41 108.05 81.92 167.5 100.78 167.5 101.32" style="fill: #0b9399;"/>
      <polygon points="167.5 101.86 107.74 82.9 107.89 82.41 167.5 101.32 167.5 101.86" style="fill: #0b949a;"/>
      <polygon points="167.5 102.4 107.58 83.39 107.74 82.9 167.5 101.86 167.5 102.4" style="fill: #0c959b;"/>
      <polygon points="167.5 102.94 107.43 83.88 107.58 83.39 167.5 102.4 167.5 102.94" style="fill: #0c969c;"/>
      <polygon points="167.5 103.47 107.27 84.37 107.43 83.88 167.5 102.94 167.5 103.47" style="fill: #0d979d;"/>
      <polygon points="167.5 104.01 107.12 84.86 107.27 84.37 167.5 103.47 167.5 104.01" style="fill: #0d989e;"/>
      <polygon points="167.5 104.55 106.96 85.34 107.12 84.86 167.5 104.01 167.5 104.55" style="fill: #0e989f;"/>
      <polygon points="167.5 105.09 106.81 85.83 106.96 85.34 167.5 104.55 167.5 105.09" style="fill: #0e99a0;"/>
      <polygon points="167.5 105.63 106.65 86.32 106.81 85.83 167.5 105.09 167.5 105.63" style="fill: #0f9aa1;"/>
      <polygon points="167.5 106.16 106.5 86.81 106.65 86.32 167.5 105.63 167.5 106.16" style="fill: #0f9ba2;"/>
      <polygon points="167.5 106.7 106.34 87.3 106.5 86.81 167.5 106.16 167.5 106.7" style="fill: #109ca3;"/>
      <polygon points="167.5 107.24 106.19 87.79 106.34 87.3 167.5 106.7 167.5 107.24" style="fill: #109da4;"/>
      <polygon points="167.5 107.78 106.03 88.28 106.19 87.79 167.5 107.24 167.5 107.78" style="fill: #119ea5;"/>
      <polygon points="167.5 108.32 105.88 88.77 106.03 88.28 167.5 107.78 167.5 108.32" style="fill: #119fa6;"/>
      <polygon points="167.5 108.85 105.72 89.26 105.88 88.77 167.5 108.32 167.5 108.85" style="fill: #12a0a7;"/>
      <polygon points="167.5 109.39 105.57 89.74 105.72 89.26 167.5 108.85 167.5 109.39" style="fill: #13a1a8;"/>
      <polygon points="167.5 109.93 105.41 90.23 105.57 89.74 167.5 109.39 167.5 109.93" style="fill: #13a2a9;"/>
      <polygon points="167.5 110.47 105.26 90.72 105.41 90.23 167.5 109.93 167.5 110.47" style="fill: #14a3aa;"/>
      <polygon points="167.5 111.01 105.1 91.21 105.26 90.72 167.5 110.47 167.5 111.01" style="fill: #14a4ab;"/>
      <polygon points="167.5 111.54 104.95 91.7 105.1 91.21 167.5 111.01 167.5 111.54" style="fill: #15a5ac;"/>
      <polygon points="167.5 112.08 104.79 92.19 104.95 91.7 167.5 111.54 167.5 112.08" style="fill: #15a6ad;"/>
      <polygon points="167.5 112.62 104.64 92.68 104.79 92.19 167.5 112.08 167.5 112.62" style="fill: #16a7ae;"/>
      <polygon points="167.5 113.16 104.48 93.17 104.64 92.68 167.5 112.62 167.5 113.16" style="fill: #16a8af;"/>
      <polygon points="167.5 113.7 104.33 93.65 104.48 93.17 167.5 113.16 167.5 113.7" style="fill: #17a9b0;"/>
      <polygon points="167.5 114.23 104.17 94.14 104.33 93.65 167.5 113.7 167.5 114.23" style="fill: #17aab1;"/>
      <polygon points="167.5 114.77 104.02 94.63 104.17 94.14 167.5 114.23 167.5 114.77" style="fill: #18abb2;"/>
      <polygon points="167.5 115.31 103.86 95.12 104.02 94.63 167.5 114.77 167.5 115.31" style="fill: #18acb3;"/>
      <polygon points="167.5 115.85 103.71 95.61 103.86 95.12 167.5 115.31 167.5 115.85" style="fill: #19adb4;"/>
      <polygon points="167.5 116.39 103.55 96.1 103.71 95.61 167.5 115.85 167.5 116.39" style="fill: #19aeb5;"/>
      <polygon points="167.5 116.92 103.39 96.59 103.55 96.1 167.5 116.39 167.5 116.92" style="fill: #1aafb6;"/>
      <polygon points="167.5 117.46 103.24 97.08 103.39 96.59 167.5 116.92 167.5 117.46" style="fill: #1bb0b8;"/>
      <polygon points="167.5 118 103.08 97.57 103.24 97.08 167.5 117.46 167.5 118" style="fill: #1bb1b9;"/>
      <polygon points="167.5 118.54 102.93 98.05 103.08 97.57 167.5 118 167.5 118.54" style="fill: #1cb2ba;"/>
      <polygon points="167.5 119.08 102.77 98.54 102.93 98.05 167.5 118.54 167.5 119.08" style="fill: #1cb3bb;"/>
      <polygon points="167.5 119.61 102.62 99.03 102.77 98.54 167.5 119.08 167.5 119.61" style="fill: #1db4bc;"/>
      <polygon points="167.5 120.15 102.46 99.52 102.62 99.03 167.5 119.61 167.5 120.15" style="fill: #1db5bd;"/>
      <polygon points="167.5 120.69 102.31 100.01 102.46 99.52 167.5 120.15 167.5 120.69" style="fill: #1eb6be;"/>
      <polygon points="167.5 121.23 102.15 100.5 102.31 100.01 167.5 120.69 167.5 121.23" style="fill: #1eb7bf;"/>
      <polygon points="167.5 121.77 102 100.99 102.15 100.5 167.5 121.23 167.5 121.77" style="fill: #1fb8c0;"/>
      <polygon points="167.5 122.3 101.84 101.48 102 100.99 167.5 121.77 167.5 122.3" style="fill: #1fb9c1;"/>
      <polygon points="167.5 122.84 101.69 101.96 101.84 101.48 167.5 122.3 167.5 122.84" style="fill: #20bac2;"/>
      <polygon points="167.5 123.38 101.53 102.45 101.69 101.96 167.5 122.84 167.5 123.38" style="fill: #20bbc3;"/>
      <polygon points="167.5 123.92 101.38 102.94 101.53 102.45 167.5 123.38 167.5 123.92" style="fill: #21bcc4;"/>
      <polygon points="167.5 124.46 101.22 103.43 101.38 102.94 167.5 123.92 167.5 124.46" style="fill: #21bdc5;"/>
      <polygon points="167.5 124.99 101.15 103.95 101.15 103.67 101.22 103.43 167.5 124.46 167.5 124.99" style="fill: #22bec6;"/>
      <polygon points="167.5 125.53 101.15 104.48 101.15 103.95 167.5 124.99 167.5 125.53" style="fill: #22bfc7;"/>
      <polygon points="167.5 126.07 101.15 105.02 101.15 104.48 167.5 125.53 167.5 126.07" style="fill: #23c0c8;"/>
      <polygon points="167.5 126.61 101.15 105.56 101.15 105.02 167.5 126.07 167.5 126.61" style="fill: #24c1c9;"/>
      <polygon points="167.5 127.15 101.15 106.1 101.15 105.56 167.5 126.61 167.5 127.15" style="fill: #24c2ca;"/>
      <polygon points="167.5 127.68 101.15 106.64 101.15 106.1 167.5 127.15 167.5 127.68" style="fill: #25c3cb;"/>
      <polygon points="167.5 128.22 101.15 107.17 101.15 106.64 167.5 127.68 167.5 128.22" style="fill: #25c4cc;"/>
      <polygon points="167.5 128.76 101.15 107.71 101.15 107.17 167.5 128.22 167.5 128.76" style="fill: #26c5cd;"/>
      <polygon points="167.5 129.3 101.15 108.25 101.15 107.71 167.5 128.76 167.5 129.3" style="fill: #26c6ce;"/>
      <polygon points="167.5 129.84 101.15 108.79 101.15 108.25 167.5 129.3 167.5 129.84" style="fill: #27c7cf;"/>
      <polygon points="167.5 130.37 101.15 109.33 101.15 108.79 167.5 129.84 167.5 130.37" style="fill: #27c8d0;"/>
      <polygon points="167.5 130.88 167.5 130.91 101.15 109.86 101.15 109.33 167.5 130.37 167.5 130.88" style="fill: #28c9d1;"/>
      <polygon points="167.5 130.91 167.34 131.4 101.15 110.4 101.15 109.86 167.5 130.91" style="fill: #28c9d2;"/>
      <polygon points="167.34 131.4 167.19 131.89 101.15 110.94 101.15 110.4 167.34 131.4" style="fill: #29cad3;"/>
      <polygon points="167.19 131.89 167.03 132.38 101.15 111.48 101.15 110.94 167.19 131.89" style="fill: #29cbd4;"/>
      <polygon points="167.03 132.38 166.88 132.87 101.15 112.02 101.15 111.48 167.03 132.38" style="fill: #2accd5;"/>
      <polygon points="166.88 132.87 166.72 133.35 101.15 112.55 101.15 112.02 166.88 132.87" style="fill: #2acdd6;"/>
      <polygon points="166.72 133.35 166.57 133.84 101.15 113.09 101.15 112.55 166.72 133.35" style="fill: #2bced7;"/>
      <polygon points="166.57 133.84 166.41 134.33 101.15 113.63 101.15 113.09 166.57 133.84" style="fill: #2bcfd8;"/>
      <polygon points="166.41 134.33 166.26 134.82 101.15 114.17 101.15 113.63 166.41 134.33" style="fill: #2cd0d9;"/>
      <polygon points="166.26 134.82 166.1 135.31 101.15 114.71 101.15 114.17 166.26 134.82" style="fill: #2dd1da;"/>
      <polygon points="166.1 135.31 165.95 135.8 101.15 115.24 101.15 114.71 166.1 135.31" style="fill: #2dd2db;"/>
      <polygon points="165.95 135.8 165.79 136.29 101.15 115.78 101.15 115.24 165.95 135.8" style="fill: #2ed3dc;"/>
      <polygon points="165.79 136.29 165.64 136.78 101.15 116.32 101.15 115.78 165.79 136.29" style="fill: #2ed4dd;"/>
      <polygon points="165.64 136.78 165.48 137.27 101.15 116.86 101.15 116.32 165.64 136.78" style="fill: #2fd5de;"/>
      <polygon points="165.48 137.27 165.33 137.75 101.15 117.4 101.15 116.86 165.48 137.27" style="fill: #2fd6df;"/>
      <polygon points="165.33 137.75 165.17 138.24 101.15 117.93 101.15 117.4 165.33 137.75" style="fill: #30d7e0;"/>
      <polygon points="165.17 138.24 165.02 138.73 101.15 118.47 101.15 117.93 165.17 138.24" style="fill: #30d8e1;"/>
      <polygon points="165.02 138.73 164.86 139.22 101.15 119.01 101.15 118.47 165.02 138.73" style="fill: #31d9e2;"/>
      <polygon points="164.86 139.22 164.71 139.71 101.15 119.55 101.15 119.01 164.86 139.22" style="fill: #31dae3;"/>
      <polygon points="164.71 139.71 164.55 140.2 101.15 120.09 101.15 119.55 164.71 139.71" style="fill: #32dbe4;"/>
      <polygon points="164.55 140.2 164.4 140.69 101.15 120.62 101.15 120.09 164.55 140.2" style="fill: #32dce5;"/>
      <polygon points="164.4 140.69 164.24 141.18 101.15 121.16 101.15 120.62 164.4 140.69" style="fill: #33dde6;"/>
      <polygon points="164.24 141.18 164.09 141.66 101.15 121.7 101.15 121.16 164.24 141.18" style="fill: #33dee7;"/>
      <polygon points="164.09 141.66 163.93 142.15 101.15 122.24 101.15 121.7 164.09 141.66" style="fill: #34dfe8;"/>
      <polygon points="163.93 142.15 163.78 142.64 101.15 122.78 101.15 122.24 163.93 142.15" style="fill: #34e0e9;"/>
      <polygon points="163.78 142.64 163.62 143.13 101.15 123.31 101.15 122.78 163.78 142.64" style="fill: #35e1ea;"/>
      <polygon points="163.62 143.13 163.53 143.4 101.15 123.62 101.15 123.31 163.62 143.13" style="fill: #35e1ea;"/>
      <polygon points="163.53 143.4 163.45 143.68 101.15 123.92 101.15 123.62 163.53 143.4" style="fill: #36e1ea;"/>
      <polygon points="163.45 143.68 163.36 143.95 101.15 124.22 101.15 123.92 163.45 143.68" style="fill: #37e2eb;"/>
      <polygon points="163.36 143.95 163.27 144.23 101.15 124.52 101.15 124.22 163.36 143.95" style="fill: #38e2eb;"/>
      <polygon points="163.27 144.23 163.19 144.5 101.15 124.82 101.15 124.52 163.27 144.23" style="fill: #39e2eb;"/>
      <polygon points="163.19 144.5 163.1 144.77 101.15 125.12 101.15 124.82 163.19 144.5" style="fill: #3ae3eb;"/>
      <polygon points="163.1 144.77 163.01 145.05 101.15 125.42 101.15 125.12 163.1 144.77" style="fill: #3be3ec;"/>
      <polygon points="163.01 145.05 162.93 145.32 101.15 125.73 101.15 125.42 163.01 145.05" style="fill: #3ce3ec;"/>
      <polygon points="162.93 145.32 162.84 145.6 101.15 126.03 101.15 125.73 162.93 145.32" style="fill: #3de3ec;"/>
      <polygon points="162.84 145.6 162.75 145.87 101.15 126.33 101.15 126.03 162.84 145.6" style="fill: #3ee4ec;"/>
      <polygon points="162.75 145.87 162.66 146.14 101.15 126.63 101.15 126.33 162.75 145.87" style="fill: #3fe4ed;"/>
      <polygon points="162.66 146.14 162.58 146.42 101.15 126.93 101.15 126.63 162.66 146.14" style="fill: #40e4ed;"/>
      <polygon points="162.58 146.42 162.49 146.69 101.15 127.23 101.15 126.93 162.58 146.42" style="fill: #41e5ed;"/>
      <polygon points="162.49 146.69 162.4 146.96 101.15 127.53 101.15 127.23 162.49 146.69" style="fill: #42e5ed;"/>
      <polygon points="162.4 146.96 162.32 147.24 101.15 127.84 101.15 127.53 162.4 146.96" style="fill: #43e5ee;"/>
      <polygon points="162.32 147.24 162.23 147.51 101.15 128.14 101.15 127.84 162.32 147.24" style="fill: #44e6ee;"/>
      <polygon points="162.23 147.51 162.14 147.79 101.15 128.44 101.15 128.14 162.23 147.51" style="fill: #45e6ee;"/>
      <polygon points="162.14 147.79 162.06 148.06 101.15 128.74 101.15 128.44 162.14 147.79" style="fill: #46e6ee;"/>
      <polygon points="162.06 148.06 161.97 148.33 101.15 129.04 101.15 128.74 162.06 148.06" style="fill: #47e6ef;"/>
      <polygon points="161.97 148.33 161.88 148.61 101.15 129.34 101.15 129.04 161.97 148.33" style="fill: #48e7ef;"/>
      <polygon points="161.88 148.61 161.8 148.88 101.15 129.64 101.15 129.34 161.88 148.61" style="fill: #49e7ef;"/>
      <polygon points="161.8 148.88 161.71 149.16 101.15 129.95 101.15 129.64 161.8 148.88" style="fill: #4ae7f0;"/>
      <polygon points="161.71 149.16 161.62 149.43 101.15 130.25 101.15 129.95 161.71 149.16" style="fill: #4be8f0;"/>
      <polygon points="161.62 149.43 161.6 149.49 160.86 149.49 101.15 130.55 101.15 130.25 161.62 149.43" style="fill: #4ce8f0;"/>
      <polygon points="159.91 149.49 101.15 130.85 101.15 130.55 160.86 149.49 159.91 149.49" style="fill: #4de8f0;"/>
      <polygon points="158.96 149.49 101.15 131.15 101.15 130.85 159.91 149.49 158.96 149.49" style="fill: #4ee9f1;"/>
      <polygon points="158.01 149.49 101.15 131.45 101.15 131.15 158.96 149.49 158.01 149.49" style="fill: #4fe9f1;"/>
      <polygon points="157.06 149.49 101.15 131.75 101.15 131.45 158.01 149.49 157.06 149.49" style="fill: #50e9f1;"/>
      <polygon points="156.11 149.49 101.15 132.05 101.15 131.75 157.06 149.49 156.11 149.49" style="fill: #51e9f1;"/>
      <polygon points="155.16 149.49 101.15 132.36 101.15 132.05 156.11 149.49 155.16 149.49" style="fill: #52eaf2;"/>
      <polygon points="154.21 149.49 101.15 132.66 101.15 132.36 155.16 149.49 154.21 149.49" style="fill: #53eaf2;"/>
      <polygon points="153.26 149.49 101.15 132.96 101.15 132.66 154.21 149.49 153.26 149.49" style="fill: #54eaf2;"/>
      <polygon points="152.31 149.49 101.15 133.26 101.15 132.96 153.26 149.49 152.31 149.49" style="fill: #55ebf2;"/>
      <polygon points="151.36 149.49 101.15 133.56 101.15 133.26 152.31 149.49 151.36 149.49" style="fill: #56ebf3;"/>
      <polygon points="150.41 149.49 101.15 133.86 101.15 133.56 151.36 149.49 150.41 149.49" style="fill: #57ebf3;"/>
      <polygon points="149.46 149.49 101.15 134.16 101.15 133.86 150.41 149.49 149.46 149.49" style="fill: #58ecf3;"/>
      <polygon points="148.51 149.49 101.15 134.47 101.15 134.16 149.46 149.49 148.51 149.49" style="fill: #59ecf3;"/>
      <polygon points="147.56 149.49 101.15 134.77 101.15 134.47 148.51 149.49 147.56 149.49" style="fill: #5aecf4;"/>
      <polygon points="146.61 149.49 101.15 135.07 101.15 134.77 147.56 149.49 146.61 149.49" style="fill: #5becf4;"/>
      <polygon points="145.66 149.49 101.15 135.37 101.15 135.07 146.61 149.49 145.66 149.49" style="fill: #5cedf4;"/>
      <polygon points="144.71 149.49 101.15 135.67 101.15 135.37 145.66 149.49 144.71 149.49" style="fill: #5eedf5;"/>
      <polygon points="143.76 149.49 101.15 135.97 101.15 135.67 144.71 149.49 143.76 149.49" style="fill: #5fedf5;"/>
      <polygon points="142.81 149.49 101.15 136.27 101.15 135.97 143.76 149.49 142.81 149.49" style="fill: #60eef5;"/>
      <polygon points="141.86 149.49 101.15 136.58 101.15 136.27 142.81 149.49 141.86 149.49" style="fill: #61eef5;"/>
      <polygon points="140.91 149.49 101.15 136.88 101.15 136.58 141.86 149.49 140.91 149.49" style="fill: #62eef6;"/>
      <polygon points="139.96 149.49 101.15 137.18 101.15 136.88 140.91 149.49 139.96 149.49" style="fill: #63eff6;"/>
      <polygon points="139.01 149.49 101.15 137.48 101.15 137.18 139.96 149.49 139.01 149.49" style="fill: #64eff6;"/>
      <polygon points="138.06 149.49 101.15 137.78 101.15 137.48 139.01 149.49 138.06 149.49" style="fill: #65eff6;"/>
      <polygon points="137.11 149.49 101.15 138.08 101.15 137.78 138.06 149.49 137.11 149.49" style="fill: #66eff7;"/>
      <polygon points="136.16 149.49 101.15 138.38 101.15 138.08 137.11 149.49 136.16 149.49" style="fill: #67f0f7;"/>
      <polygon points="135.21 149.49 101.15 138.69 101.15 138.38 136.16 149.49 135.21 149.49" style="fill: #68f0f7;"/>
      <polygon points="134.26 149.49 101.15 138.99 101.15 138.69 135.21 149.49 134.26 149.49" style="fill: #69f0f7;"/>
      <polygon points="133.31 149.49 101.15 139.29 101.15 138.99 134.26 149.49 133.31 149.49" style="fill: #6af1f8;"/>
      <polygon points="132.36 149.49 101.15 139.59 101.15 139.29 133.31 149.49 132.36 149.49" style="fill: #6bf1f8;"/>
      <polygon points="131.41 149.49 101.15 139.89 101.15 139.59 132.36 149.49 131.41 149.49" style="fill: #6cf1f8;"/>
      <polygon points="130.46 149.49 101.15 140.19 101.15 139.89 131.41 149.49 130.46 149.49" style="fill: #6df2f8;"/>
      <polygon points="129.51 149.49 101.15 140.49 101.15 140.19 130.46 149.49 129.51 149.49" style="fill: #6ef2f9;"/>
      <polygon points="128.56 149.49 101.15 140.8 101.15 140.49 129.51 149.49 128.56 149.49" style="fill: #6ff2f9;"/>
      <polygon points="127.61 149.49 101.15 141.1 101.15 140.8 128.56 149.49 127.61 149.49" style="fill: #70f2f9;"/>
      <polygon points="126.66 149.49 101.15 141.4 101.15 141.1 127.61 149.49 126.66 149.49" style="fill: #71f3f9;"/>
      <polygon points="125.71 149.49 101.15 141.7 101.15 141.4 126.66 149.49 125.71 149.49" style="fill: #72f3fa;"/>
      <polygon points="124.76 149.49 101.15 142 101.15 141.7 125.71 149.49 124.76 149.49" style="fill: #73f3fa;"/>
      <polygon points="123.81 149.49 101.15 142.3 101.15 142 124.76 149.49 123.81 149.49" style="fill: #74f4fa;"/>
      <polygon points="122.86 149.49 101.15 142.6 101.15 142.3 123.81 149.49 122.86 149.49" style="fill: #75f4fb;"/>
      <polygon points="121.91 149.49 101.15 142.91 101.15 142.6 122.86 149.49 121.91 149.49" style="fill: #76f4fb;"/>
      <polygon points="120.96 149.49 101.15 143.21 101.15 142.91 121.91 149.49 120.96 149.49" style="fill: #77f5fb;"/>
      <polygon points="120.01 149.49 101.15 143.51 101.15 143.21 120.96 149.49 120.01 149.49" style="fill: #78f5fb;"/>
      <polygon points="119.06 149.49 101.15 143.81 101.15 143.51 120.01 149.49 119.06 149.49" style="fill: #79f5fc;"/>
      <polygon points="118.11 149.49 101.15 144.11 101.15 143.81 119.06 149.49 118.11 149.49" style="fill: #7af5fc;"/>
      <polygon points="117.16 149.49 101.15 144.41 101.15 144.11 118.11 149.49 117.16 149.49" style="fill: #7bf6fc;"/>
      <polygon points="116.21 149.49 101.15 144.71 101.15 144.41 117.16 149.49 116.21 149.49" style="fill: #7cf6fc;"/>
      <polygon points="115.26 149.49 101.15 145.02 101.15 144.71 116.21 149.49 115.26 149.49" style="fill: #7df6fd;"/>
      <polygon points="114.31 149.49 101.15 145.32 101.15 145.02 115.26 149.49 114.31 149.49" style="fill: #7ef7fd;"/>
      <polygon points="113.36 149.49 101.15 145.62 101.15 145.32 114.31 149.49 113.36 149.49" style="fill: #7ff7fd;"/>
      <polygon points="112.41 149.49 101.15 145.92 101.15 145.62 113.36 149.49 112.41 149.49" style="fill: #80f7fd;"/>
      <polygon points="111.46 149.49 101.15 146.22 101.15 145.92 112.41 149.49 111.46 149.49" style="fill: #81f8fe;"/>
      <polygon points="110.51 149.49 101.15 146.52 101.15 146.22 111.46 149.49 110.51 149.49" style="fill: #82f8fe;"/>
      <polygon points="109.56 149.49 101.15 146.82 101.15 146.52 110.51 149.49 109.56 149.49" style="fill: #83f8fe;"/>
      <polygon points="108.61 149.49 101.15 147.13 101.15 146.82 109.56 149.49 108.61 149.49" style="fill: #84f8fe;"/>
      <polygon points="107.66 149.49 101.15 147.43 101.15 147.13 108.61 149.49 107.66 149.49" style="fill: #85f9ff;"/>
      <polygon points="106.71 149.49 101.15 147.73 101.15 147.43 107.66 149.49 106.71 149.49" style="fill: #86f9ff;"/>
      <polygon points="101.15 147.73 106.71 149.49 101.15 149.49 101.15 147.73" style="fill: #86f9ff;"/>
    </g>
    <path d="M30.46,64.56h9.25c.29,0,.53.1.74.3.21.21.31.46.31.76v.03c0,.3-.1.55-.31.76-.21.19-.46.3-.74.3h-9.25v6.1c0,.85.3,1.58.91,2.19.61.61,1.34.91,2.19.91h6.15c.29,0,.53.1.74.31.21.21.31.46.31.76v.03c0,.29-.1.53-.31.74-.21.21-.46.31-.74.31h-6.15c-1.46,0-2.7-.51-3.72-1.53-1.02-1.02-1.53-2.27-1.53-3.72v-14.34c0-1.46.51-2.7,1.53-3.72,1.02-1.02,2.27-1.53,3.72-1.53h6.15c.29,0,.53.1.74.31.21.21.31.46.31.74v.03c0,.3-.1.55-.31.76-.21.21-.46.31-.74.31h-6.15c-.85,0-1.58.3-2.19.91s-.91,1.34-.91,2.19v6.1h0Z" style="fill: #1ebec6;"/>
    <path d="M47.74,62.43c-.78,0-1.45.28-2,.83-.55.56-.83,1.23-.83,2,0,1.1.52,1.93,1.55,2.48.3.15,1.33.46,3.09.93,1.21.35,2.07.78,2.61,1.29.74.7,1.12,1.74,1.12,3.12s-.48,2.55-1.45,3.54c-.98.96-2.16,1.45-3.54,1.45h-4.5c-.29,0-.53-.1-.74-.31-.21-.21-.31-.46-.31-.74v-.03c0-.3.1-.55.31-.76.21-.21.46-.31.74-.31h4.67c.78,0,1.45-.28,2-.83.55-.55.83-1.22.83-2,0-1.07-.52-1.85-1.57-2.36-.22-.1-1.24-.41-3.07-.93-1.18-.35-2.05-.8-2.61-1.31-.74-.74-1.12-1.82-1.12-3.22s.48-2.55,1.45-3.52c.98-.98,2.16-1.46,3.54-1.46h3.17c.3,0,.55.1.76.31.21.21.31.46.31.76v.03c0,.29-.1.53-.31.74-.21.21-.46.31-.76.31h-3.35Z" style="fill: #1ebec6;"/>
    <path d="M57.09,85.14c-.29,0-.53-.1-.74-.31-.21-.21-.31-.46-.31-.74v-14.96c.01-2.44.89-4.54,2.62-6.28,1.73-1.73,3.81-2.59,6.28-2.59s4.56.87,6.29,2.6c1.73,1.73,2.61,3.83,2.61,6.29s-.87,4.56-2.61,6.29c-1.73,1.73-3.83,2.6-6.29,2.6-2.25,0-4.5-1-6.74-3v9.03c0,.29-.1.53-.31.74-.21.21-.46.31-.74.31h-.06ZM69.69,73.89c1.32-1.32,1.98-2.91,1.98-4.76s-.66-3.45-1.98-4.77c-1.32-1.32-2.89-1.96-4.76-1.96s-3.45.65-4.77,1.96c-1.31,1.32-1.96,2.91-1.96,4.77s.65,3.43,1.96,4.76c1.32,1.32,2.91,1.98,4.77,1.98s3.46-.66,4.76-1.98Z" style="fill: #1ebec6;"/>
    <path d="M91.93,62.88c1.73,1.73,2.61,3.83,2.61,6.29v7.84c0,.29-.1.53-.31.74-.21.21-.46.31-.74.31h-.05c-.29,0-.53-.1-.74-.31s-.31-.46-.31-.74v-1.94c-2.25,2-4.5,3-6.74,3-2.46,0-4.56-.87-6.29-2.6-1.73-1.73-2.61-3.83-2.61-6.29s.87-4.56,2.61-6.29c1.73-1.73,3.83-2.6,6.29-2.6s4.56.87,6.29,2.6h-.01ZM80.87,64.41c-1.31,1.32-1.96,2.91-1.96,4.76s.65,3.45,1.96,4.77c1.32,1.31,2.91,1.96,4.77,1.96s3.45-.65,4.76-1.96c1.32-1.32,1.98-2.91,1.98-4.77s-.66-3.43-1.98-4.76c-1.3-1.32-2.88-1.98-4.76-1.98s-3.45.66-4.77,1.98Z" style="fill: #1ebec6;"/>
    <path d="M109.05,60.7c.49.15.74.48.74,1v.08c0,.35-.14.64-.43.85-.29.22-.6.28-.95.17-.65-.23-1.34-.35-2.05-.35-1.86,0-3.45.66-4.77,1.98-1.31,1.32-1.96,2.91-1.96,4.77s.65,3.43,1.96,4.76c1.32,1.32,2.91,1.98,4.77,1.98.71,0,1.4-.1,2.05-.31.35-.12.66-.07.95.13.29.21.43.49.43.86,0,.51-.25.84-.74,1-.87.28-1.77.41-2.69.41-2.46,0-4.56-.87-6.29-2.6-1.73-1.73-2.61-3.83-2.61-6.29s.87-4.56,2.61-6.29c1.73-1.73,3.83-2.6,6.29-2.6.92,0,1.82.14,2.69.43h0Z" style="fill: #1ebec6;"/>
    <path d="M129.17,65.47c.13.26.13.53.03.81-.1.26-.29.46-.55.58-1.61.73-3.72,1.67-6.34,2.86-3.25,1.47-5.56,2.51-6.93,3.12,1.61,2.07,3.51,3.1,5.71,3.1,1.46,0,2.78-.43,3.97-1.29,1.14-.83,1.94-1.91,2.39-3.24.17-.48.52-.73,1.03-.73.37,0,.66.15.88.45.21.3.24.62.12.96-.61,1.76-1.67,3.18-3.19,4.27-1.57,1.12-3.3,1.67-5.2,1.67-2.46,0-4.56-.87-6.29-2.6-1.73-1.73-2.61-3.83-2.61-6.29s.87-4.56,2.61-6.29c1.73-1.73,3.83-2.6,6.29-2.6,1.77,0,3.39.48,4.86,1.45,1.44.94,2.51,2.19,3.22,3.75h0ZM121.09,62.46c-1.86,0-3.45.66-4.77,1.98-1.31,1.32-1.96,2.91-1.96,4.77,0,.33.06.89.17,1.67l12.15-5.5c-1.63-1.95-3.49-2.93-5.58-2.93Z" style="fill: #1ebec6;"/>
  </g>
</svg>